<?xml version="1.0" encoding="UTF-8" ?>
<svg version="1.1" width="320" height="640" xmlns="http://www.w3.org/2000/svg" shape-rendering="crispEdges">
<rect x="80" y="10" width="10" height="90" fill="#1F1E1E" />
<rect x="70" y="20" width="10" height="90" fill="#1F1E1E" />
<rect x="90" y="20" width="10" height="100" fill="#1F1E1E" />
<rect x="60" y="40" width="10" height="80" fill="#1F1E1E" />
<rect x="100" y="40" width="10" height="110" fill="#1F1E1E" />
<rect x="50" y="50" width="10" height="90" fill="#1F1E1E" />
<rect x="40" y="70" width="10" height="100" fill="#1F1E1E" />
<rect x="110" y="70" width="10" height="120" fill="#1F1E1E" />
<rect x="30" y="90" width="10" height="130" fill="#1F1E1E" />
<rect x="120" y="90" width="10" height="120" fill="#1F1E1E" />
<rect x="80" y="100" width="10" height="150" fill="#FFF984" />
<rect x="20" y="110" width="10" height="110" fill="#1F1E1E" />
<rect x="70" y="110" width="10" height="100" fill="#FFF984" />
<rect x="60" y="120" width="10" height="100" fill="#FFF984" />
<rect x="90" y="120" width="10" height="140" fill="#FFF984" />
<rect x="130" y="130" width="10" height="60" fill="#1F1E1E" />
<rect x="50" y="140" width="10" height="80" fill="#FFF984" />
<rect x="10" y="150" width="10" height="60" fill="#1F1E1E" />
<rect x="100" y="150" width="10" height="60" fill="#FFF984" />
<rect x="300" y="160" width="20" height="20" fill="#15120F" />
<rect x="40" y="170" width="10" height="50" fill="#FFF984" />
<rect x="270" y="170" width="30" height="10" fill="#15120F" />
<rect x="250" y="180" width="40" height="10" fill="#15120F" />
<rect x="290" y="180" width="30" height="10" fill="#1F1E1E" />
<rect x="110" y="190" width="10" height="10" fill="#FFF984" />
<rect x="240" y="190" width="20" height="10" fill="#15120F" />
<rect x="260" y="190" width="40" height="10" fill="#1F1E1E" />
<rect x="300" y="190" width="20" height="90" fill="#FFF984" />
<rect x="110" y="200" width="10" height="10" fill="#1F1E1E" />
<rect x="130" y="200" width="40" height="10" fill="#1F1E1E" />
<rect x="240" y="200" width="30" height="10" fill="#1F1E1E" />
<rect x="270" y="200" width="30" height="100" fill="#FFF984" />
<rect x="70" y="210" width="10" height="10" fill="#1F1E1E" />
<rect x="100" y="210" width="10" height="10" fill="#1F1E1E" />
<rect x="110" y="210" width="60" height="70" fill="#FFF984" />
<rect x="170" y="210" width="30" height="10" fill="#1F1E1E" />
<rect x="230" y="210" width="20" height="10" fill="#1F1E1E" />
<rect x="250" y="210" width="20" height="80" fill="#FFF984" />
<rect x="40" y="220" width="30" height="10" fill="#1F1E1E" />
<rect x="70" y="220" width="10" height="20" fill="#FFF984" />
<rect x="100" y="220" width="10" height="70" fill="#FFF984" />
<rect x="170" y="220" width="30" height="40" fill="#FFF984" />
<rect x="200" y="220" width="20" height="10" fill="#1F1E1E" />
<rect x="230" y="220" width="10" height="30" fill="#1F1E1E" />
<rect x="240" y="220" width="10" height="70" fill="#FFF984" />
<rect x="40" y="230" width="10" height="10" fill="#1F1E1E" />
<rect x="50" y="230" width="20" height="10" fill="#FFF984" />
<rect x="200" y="230" width="20" height="40" fill="#FFF984" />
<rect x="220" y="230" width="10" height="30" fill="#1F1E1E" />
<rect x="30" y="240" width="10" height="10" fill="#1F1E1E" />
<rect x="40" y="240" width="20" height="10" fill="#FFF984" />
<rect x="60" y="240" width="20" height="10" fill="#1F1E1E" />
<rect x="20" y="250" width="10" height="10" fill="#1F1E1E" />
<rect x="30" y="250" width="20" height="10" fill="#FFF984" />
<rect x="50" y="250" width="10" height="40" fill="#1F1E1E" />
<rect x="60" y="250" width="20" height="20" fill="#FFFFFF" />
<rect x="80" y="250" width="10" height="40" fill="#1F1E1E" />
<rect x="230" y="250" width="10" height="30" fill="#FFF984" />
<rect x="10" y="260" width="10" height="20" fill="#1F1E1E" />
<rect x="20" y="260" width="20" height="40" fill="#FFF984" />
<rect x="40" y="260" width="10" height="20" fill="#1F1E1E" />
<rect x="90" y="260" width="10" height="20" fill="#1F1E1E" />
<rect x="170" y="260" width="10" height="10" fill="#FFF984" />
<rect x="180" y="260" width="20" height="10" fill="#1F1E1E" />
<rect x="220" y="260" width="10" height="120" fill="#FFF984" />
<rect x="60" y="270" width="20" height="30" fill="#1F1E1E" />
<rect x="170" y="270" width="10" height="40" fill="#1F1E1E" />
<rect x="180" y="270" width="20" height="20" fill="#FFFFFF" />
<rect x="200" y="270" width="10" height="40" fill="#1F1E1E" />
<rect x="210" y="270" width="10" height="10" fill="#FFF984" />
<rect x="0" y="280" width="10" height="30" fill="#1F1E1E" />
<rect x="10" y="280" width="10" height="30" fill="#FFF984" />
<rect x="40" y="280" width="10" height="30" fill="#FFF984" />
<rect x="90" y="280" width="10" height="10" fill="#FFF984" />
<rect x="110" y="280" width="50" height="30" fill="#FFF984" />
<rect x="160" y="280" width="10" height="20" fill="#1F1E1E" />
<rect x="210" y="280" width="10" height="20" fill="#1F1E1E" />
<rect x="230" y="280" width="10" height="10" fill="#1F1E1E" />
<rect x="300" y="280" width="10" height="10" fill="#FFF984" />
<rect x="310" y="280" width="10" height="20" fill="#1F1E1E" />
<rect x="50" y="290" width="10" height="30" fill="#FFF984" />
<rect x="80" y="290" width="10" height="20" fill="#FFF984" />
<rect x="90" y="290" width="20" height="10" fill="#1F1E1E" />
<rect x="180" y="290" width="20" height="30" fill="#1F1E1E" />
<rect x="230" y="290" width="10" height="80" fill="#FFF984" />
<rect x="240" y="290" width="30" height="10" fill="#1F1E1E" />
<rect x="300" y="290" width="10" height="20" fill="#1F1E1E" />
<rect x="20" y="300" width="20" height="30" fill="#FFCCEB" />
<rect x="60" y="300" width="20" height="70" fill="#FFF984" />
<rect x="90" y="300" width="20" height="10" fill="#FFF984" />
<rect x="160" y="300" width="10" height="90" fill="#FFF984" />
<rect x="210" y="300" width="10" height="40" fill="#FFF984" />
<rect x="240" y="300" width="10" height="50" fill="#FFF984" />
<rect x="250" y="300" width="50" height="10" fill="#1F1E1E" />
<rect x="10" y="310" width="10" height="20" fill="#1F1E1E" />
<rect x="40" y="310" width="10" height="30" fill="#FFCCEB" />
<rect x="80" y="310" width="60" height="10" fill="#1F1E1E" />
<rect x="140" y="310" width="20" height="80" fill="#FFF984" />
<rect x="170" y="310" width="10" height="40" fill="#FFF984" />
<rect x="200" y="310" width="10" height="20" fill="#FFF984" />
<rect x="250" y="310" width="10" height="40" fill="#1F1E1E" />
<rect x="270" y="310" width="30" height="10" fill="#1F1E1E" />
<rect x="50" y="320" width="10" height="10" fill="#FFCCEB" />
<rect x="80" y="320" width="10" height="60" fill="#FFF984" />
<rect x="90" y="320" width="10" height="20" fill="#1F1E1E" />
<rect x="100" y="320" width="30" height="20" fill="#FFCCEB" />
<rect x="130" y="320" width="10" height="20" fill="#1F1E1E" />
<rect x="180" y="320" width="20" height="10" fill="#FFF984" />
<rect x="0" y="330" width="10" height="20" fill="#1F1E1E" />
<rect x="10" y="330" width="10" height="20" fill="#FFF984" />
<rect x="20" y="330" width="10" height="10" fill="#1F1E1E" />
<rect x="30" y="330" width="10" height="10" fill="#FFCCEB" />
<rect x="50" y="330" width="10" height="30" fill="#FFF984" />
<rect x="180" y="330" width="10" height="10" fill="#FFF984" />
<rect x="190" y="330" width="20" height="30" fill="#FFCCEB" />
<rect x="20" y="340" width="10" height="20" fill="#FFF984" />
<rect x="30" y="340" width="10" height="10" fill="#1F1E1E" />
<rect x="40" y="340" width="10" height="10" fill="#FFF984" />
<rect x="90" y="340" width="10" height="50" fill="#FFF984" />
<rect x="100" y="340" width="10" height="20" fill="#1F1E1E" />
<rect x="110" y="340" width="10" height="20" fill="#FFCCEB" />
<rect x="120" y="340" width="10" height="20" fill="#1F1E1E" />
<rect x="130" y="340" width="10" height="50" fill="#FFF984" />
<rect x="180" y="340" width="10" height="30" fill="#FFCCEB" />
<rect x="210" y="340" width="10" height="10" fill="#FFCCEB" />
<rect x="10" y="350" width="10" height="20" fill="#1F1E1E" />
<rect x="30" y="350" width="10" height="30" fill="#FFF984" />
<rect x="40" y="350" width="10" height="10" fill="#1F1E1E" />
<rect x="170" y="350" width="10" height="10" fill="#FFCCEB" />
<rect x="210" y="350" width="10" height="30" fill="#FFF984" />
<rect x="240" y="350" width="10" height="20" fill="#1F1E1E" />
<rect x="20" y="360" width="10" height="20" fill="#1F1E1E" />
<rect x="40" y="360" width="10" height="30" fill="#FFF984" />
<rect x="50" y="360" width="10" height="10" fill="#1F1E1E" />
<rect x="100" y="360" width="10" height="30" fill="#FFF984" />
<rect x="110" y="360" width="10" height="10" fill="#1F1E1E" />
<rect x="120" y="360" width="10" height="30" fill="#FFF984" />
<rect x="170" y="360" width="10" height="30" fill="#FFF984" />
<rect x="190" y="360" width="10" height="10" fill="#FFCCEB" />
<rect x="200" y="360" width="10" height="30" fill="#FFF984" />
<rect x="50" y="370" width="10" height="20" fill="#FFF984" />
<rect x="60" y="370" width="10" height="30" fill="#1F1E1E" />
<rect x="70" y="370" width="10" height="10" fill="#FFF984" />
<rect x="110" y="370" width="10" height="20" fill="#FFF984" />
<rect x="180" y="370" width="20" height="20" fill="#FFF984" />
<rect x="230" y="370" width="10" height="10" fill="#1F1E1E" />
<rect x="240" y="370" width="10" height="20" fill="#FFF984" />
<rect x="250" y="370" width="10" height="20" fill="#1F1E1E" />
<rect x="30" y="380" width="10" height="10" fill="#1F1E1E" />
<rect x="70" y="380" width="20" height="20" fill="#1F1E1E" />
<rect x="210" y="380" width="20" height="10" fill="#1F1E1E" />
<rect x="230" y="380" width="10" height="20" fill="#FFF984" />
<rect x="40" y="390" width="20" height="10" fill="#1F1E1E" />
<rect x="90" y="390" width="120" height="10" fill="#1F1E1E" />
<rect x="210" y="390" width="20" height="20" fill="#FFF984" />
<rect x="240" y="390" width="10" height="10" fill="#1F1E1E" />
<rect x="50" y="400" width="10" height="30" fill="#1F1E1E" />
<rect x="60" y="400" width="20" height="80" fill="#FFF984" />
<rect x="80" y="400" width="100" height="10" fill="#1F1E1E" />
<rect x="180" y="400" width="10" height="30" fill="#FFF984" />
<rect x="190" y="400" width="10" height="10" fill="#1F1E1E" />
<rect x="200" y="400" width="10" height="20" fill="#FFF984" />
<rect x="230" y="400" width="10" height="10" fill="#1F1E1E" />
<rect x="80" y="410" width="10" height="10" fill="#1F1E1E" />
<rect x="90" y="410" width="20" height="90" fill="#FFF984" />
<rect x="110" y="410" width="20" height="10" fill="#1F1E1E" />
<rect x="130" y="410" width="10" height="100" fill="#FFF984" />
<rect x="140" y="410" width="20" height="10" fill="#1F1E1E" />
<rect x="160" y="410" width="20" height="20" fill="#FFF984" />
<rect x="190" y="410" width="10" height="10" fill="#FFF984" />
<rect x="210" y="410" width="20" height="10" fill="#1F1E1E" />
<rect x="20" y="420" width="30" height="10" fill="#1F1E1E" />
<rect x="80" y="420" width="10" height="80" fill="#FFF984" />
<rect x="110" y="420" width="10" height="10" fill="#1F1E1E" />
<rect x="120" y="420" width="10" height="90" fill="#FFF984" />
<rect x="140" y="420" width="10" height="10" fill="#1F1E1E" />
<rect x="150" y="420" width="10" height="80" fill="#FFF984" />
<rect x="190" y="420" width="20" height="10" fill="#1F1E1E" />
<rect x="10" y="430" width="20" height="10" fill="#1F1E1E" />
<rect x="30" y="430" width="10" height="10" fill="#FFF984" />
<rect x="40" y="430" width="10" height="30" fill="#1F1E1E" />
<rect x="50" y="430" width="10" height="30" fill="#FFF984" />
<rect x="110" y="430" width="10" height="80" fill="#FFF984" />
<rect x="140" y="430" width="10" height="80" fill="#FFF984" />
<rect x="160" y="430" width="30" height="10" fill="#1F1E1E" />
<rect x="10" y="440" width="10" height="40" fill="#1F1E1E" />
<rect x="20" y="440" width="10" height="10" fill="#FFF984" />
<rect x="30" y="440" width="10" height="10" fill="#1F1E1E" />
<rect x="160" y="440" width="10" height="50" fill="#FFF984" />
<rect x="170" y="440" width="10" height="70" fill="#1F1E1E" />
<rect x="20" y="450" width="10" height="10" fill="#1F1E1E" />
<rect x="30" y="450" width="10" height="50" fill="#FFF984" />
<rect x="20" y="460" width="10" height="20" fill="#FFF984" />
<rect x="40" y="460" width="10" height="50" fill="#FFF984" />
<rect x="50" y="460" width="10" height="20" fill="#1F1E1E" />
<rect x="20" y="480" width="10" height="20" fill="#1F1E1E" />
<rect x="50" y="480" width="10" height="40" fill="#FFF984" />
<rect x="60" y="480" width="10" height="10" fill="#1F1E1E" />
<rect x="70" y="480" width="10" height="10" fill="#FFF984" />
<rect x="60" y="490" width="10" height="30" fill="#FFF984" />
<rect x="70" y="490" width="10" height="10" fill="#1F1E1E" />
<rect x="160" y="490" width="10" height="10" fill="#1F1E1E" />
<rect x="30" y="500" width="10" height="10" fill="#1F1E1E" />
<rect x="70" y="500" width="10" height="10" fill="#FFF984" />
<rect x="80" y="500" width="20" height="10" fill="#1F1E1E" />
<rect x="100" y="500" width="10" height="10" fill="#FFF984" />
<rect x="150" y="500" width="10" height="10" fill="#1F1E1E" />
<rect x="160" y="500" width="10" height="60" fill="#FFF984" />
<rect x="40" y="510" width="10" height="10" fill="#1F1E1E" />
<rect x="70" y="510" width="10" height="10" fill="#1F1E1E" />
<rect x="100" y="510" width="50" height="10" fill="#1F1E1E" />
<rect x="150" y="510" width="10" height="40" fill="#FFF984" />
<rect x="170" y="510" width="10" height="30" fill="#FFF984" />
<rect x="180" y="510" width="10" height="20" fill="#1F1E1E" />
<rect x="50" y="520" width="20" height="10" fill="#1F1E1E" />
<rect x="100" y="520" width="20" height="20" fill="#1F1E1E" />
<rect x="140" y="520" width="10" height="30" fill="#1F1E1E" />
<rect x="120" y="530" width="10" height="80" fill="#1F1E1E" />
<rect x="180" y="530" width="10" height="20" fill="#FFF984" />
<rect x="190" y="530" width="10" height="20" fill="#1F1E1E" />
<rect x="110" y="540" width="10" height="80" fill="#1F1E1E" />
<rect x="170" y="540" width="10" height="10" fill="#1F1E1E" />
<rect x="100" y="550" width="10" height="80" fill="#1F1E1E" />
<rect x="130" y="550" width="10" height="50" fill="#1F1E1E" />
<rect x="150" y="550" width="10" height="10" fill="#1F1E1E" />
<rect x="170" y="550" width="10" height="10" fill="#FFF984" />
<rect x="180" y="550" width="10" height="10" fill="#1F1E1E" />
<rect x="90" y="560" width="10" height="80" fill="#1F1E1E" />
<rect x="140" y="560" width="10" height="30" fill="#1F1E1E" />
<rect x="160" y="560" width="20" height="10" fill="#1F1E1E" />
<rect x="80" y="570" width="10" height="60" fill="#1F1E1E" />
<rect x="70" y="580" width="10" height="40" fill="#1F1E1E" />
<rect x="60" y="590" width="10" height="20" fill="#1F1E1E" />
</svg>