<?xml version="1.0" encoding="UTF-8" ?>
<svg version="1.1" width="320" height="1120" xmlns="http://www.w3.org/2000/svg" shape-rendering="crispEdges">
<rect x="80" y="0" width="20" height="40" fill="#1F1E1E" />
<rect x="100" y="10" width="10" height="100" fill="#1F1E1E" />
<rect x="110" y="20" width="10" height="30" fill="#1F1E1E" />
<rect x="120" y="30" width="10" height="10" fill="#1F1E1E" />
<rect x="90" y="40" width="10" height="40" fill="#1F1E1E" />
<rect x="120" y="40" width="10" height="100" fill="#F2D737" />
<rect x="130" y="40" width="10" height="10" fill="#1F1E1E" />
<rect x="110" y="50" width="10" height="60" fill="#F2D737" />
<rect x="130" y="50" width="10" height="110" fill="#F2D737" />
<rect x="140" y="50" width="10" height="10" fill="#1F1E1E" />
<rect x="140" y="60" width="10" height="100" fill="#F2D737" />
<rect x="150" y="60" width="10" height="20" fill="#1F1E1E" />
<rect x="150" y="80" width="10" height="210" fill="#F2D737" />
<rect x="160" y="80" width="10" height="20" fill="#1F1E1E" />
<rect x="170" y="90" width="10" height="20" fill="#1F1E1E" />
<rect x="160" y="100" width="10" height="190" fill="#F2D737" />
<rect x="110" y="110" width="10" height="30" fill="#1F1E1E" />
<rect x="170" y="110" width="10" height="170" fill="#F2D737" />
<rect x="180" y="110" width="10" height="20" fill="#1F1E1E" />
<rect x="190" y="120" width="10" height="30" fill="#1F1E1E" />
<rect x="180" y="130" width="10" height="120" fill="#F2D737" />
<rect x="120" y="140" width="10" height="20" fill="#1F1E1E" />
<rect x="200" y="140" width="10" height="50" fill="#1F1E1E" />
<rect x="190" y="150" width="10" height="20" fill="#F2D737" />
<rect x="130" y="160" width="20" height="10" fill="#1F1E1E" />
<rect x="100" y="170" width="30" height="10" fill="#1F1E1E" />
<rect x="130" y="170" width="20" height="240" fill="#F2D737" />
<rect x="190" y="170" width="10" height="10" fill="#1F1E1E" />
<rect x="80" y="180" width="20" height="10" fill="#1F1E1E" />
<rect x="100" y="180" width="30" height="60" fill="#F2D737" />
<rect x="190" y="180" width="10" height="30" fill="#F2D737" />
<rect x="210" y="180" width="10" height="10" fill="#1F1E1E" />
<rect x="60" y="190" width="20" height="10" fill="#1F1E1E" />
<rect x="80" y="190" width="20" height="50" fill="#F2D737" />
<rect x="200" y="190" width="20" height="10" fill="#F2D737" />
<rect x="220" y="190" width="10" height="10" fill="#1F1E1E" />
<rect x="50" y="200" width="10" height="10" fill="#1F1E1E" />
<rect x="60" y="200" width="20" height="110" fill="#F2D737" />
<rect x="200" y="200" width="20" height="10" fill="#1F1E1E" />
<rect x="220" y="200" width="10" height="10" fill="#F2D737" />
<rect x="230" y="200" width="10" height="10" fill="#1F1E1E" />
<rect x="270" y="200" width="20" height="10" fill="#1F1E1E" />
<rect x="40" y="210" width="10" height="10" fill="#1F1E1E" />
<rect x="50" y="210" width="10" height="260" fill="#F2D737" />
<rect x="190" y="210" width="20" height="10" fill="#1F1E1E" />
<rect x="210" y="210" width="10" height="10" fill="#FFFFFF" />
<rect x="220" y="210" width="10" height="20" fill="#1F1E1E" />
<rect x="230" y="210" width="10" height="100" fill="#F2D737" />
<rect x="240" y="210" width="10" height="10" fill="#1F1E1E" />
<rect x="260" y="210" width="10" height="10" fill="#1F1E1E" />
<rect x="270" y="210" width="10" height="280" fill="#F2D737" />
<rect x="280" y="210" width="20" height="10" fill="#1F1E1E" />
<rect x="30" y="220" width="10" height="10" fill="#1F1E1E" />
<rect x="40" y="220" width="10" height="230" fill="#F2D737" />
<rect x="190" y="220" width="10" height="50" fill="#F2D737" />
<rect x="200" y="220" width="20" height="10" fill="#1F1E1E" />
<rect x="240" y="220" width="10" height="50" fill="#F2D737" />
<rect x="250" y="220" width="10" height="50" fill="#1F1E1E" />
<rect x="260" y="220" width="10" height="280" fill="#F2D737" />
<rect x="280" y="220" width="10" height="10" fill="#1F1E1E" />
<rect x="290" y="220" width="10" height="170" fill="#F2D737" />
<rect x="300" y="220" width="10" height="360" fill="#1F1E1E" />
<rect x="20" y="230" width="10" height="10" fill="#1F1E1E" />
<rect x="30" y="230" width="10" height="270" fill="#F2D737" />
<rect x="200" y="230" width="10" height="40" fill="#F2D737" />
<rect x="210" y="230" width="10" height="10" fill="#1F1E1E" />
<rect x="220" y="230" width="10" height="400" fill="#F2D737" />
<rect x="280" y="230" width="10" height="260" fill="#F2D737" />
<rect x="0" y="240" width="20" height="10" fill="#1F1E1E" />
<rect x="20" y="240" width="10" height="250" fill="#F2D737" />
<rect x="80" y="240" width="10" height="10" fill="#F2D737" />
<rect x="90" y="240" width="20" height="10" fill="#1F1E1E" />
<rect x="110" y="240" width="20" height="10" fill="#F2D737" />
<rect x="210" y="240" width="10" height="30" fill="#F2D737" />
<rect x="0" y="250" width="20" height="60" fill="#F2D737" />
<rect x="80" y="250" width="20" height="20" fill="#1F1E1E" />
<rect x="100" y="250" width="10" height="10" fill="#FFFFFF" />
<rect x="110" y="250" width="10" height="20" fill="#1F1E1E" />
<rect x="120" y="250" width="10" height="270" fill="#F2D737" />
<rect x="180" y="250" width="10" height="10" fill="#1F1E1E" />
<rect x="100" y="260" width="10" height="20" fill="#1F1E1E" />
<rect x="180" y="260" width="10" height="10" fill="#F2D737" />
<rect x="80" y="270" width="10" height="30" fill="#F2D737" />
<rect x="90" y="270" width="10" height="10" fill="#1F1E1E" />
<rect x="110" y="270" width="10" height="50" fill="#F2D737" />
<rect x="180" y="270" width="40" height="10" fill="#1F1E1E" />
<rect x="240" y="270" width="10" height="40" fill="#1F1E1E" />
<rect x="250" y="270" width="10" height="250" fill="#F2D737" />
<rect x="90" y="280" width="20" height="20" fill="#F2D737" />
<rect x="170" y="280" width="10" height="10" fill="#1F1E1E" />
<rect x="180" y="280" width="20" height="60" fill="#DD0014" />
<rect x="200" y="280" width="10" height="60" fill="#1F1E1E" />
<rect x="210" y="280" width="10" height="360" fill="#F2D737" />
<rect x="150" y="290" width="20" height="10" fill="#1F1E1E" />
<rect x="170" y="290" width="10" height="50" fill="#DD0014" />
<rect x="80" y="300" width="20" height="60" fill="#DD0014" />
<rect x="100" y="300" width="10" height="10" fill="#F2D737" />
<rect x="150" y="300" width="10" height="130" fill="#F2D737" />
<rect x="160" y="300" width="10" height="40" fill="#1F1E1E" />
<rect x="0" y="310" width="10" height="10" fill="#F2D737" />
<rect x="10" y="310" width="10" height="180" fill="#1F1E1E" />
<rect x="60" y="310" width="10" height="10" fill="#F2D737" />
<rect x="70" y="310" width="10" height="40" fill="#DD0014" />
<rect x="100" y="310" width="10" height="40" fill="#DD0014" />
<rect x="230" y="310" width="10" height="40" fill="#1F1E1E" />
<rect x="240" y="310" width="10" height="310" fill="#F2D737" />
<rect x="0" y="320" width="10" height="20" fill="#1F1E1E" />
<rect x="60" y="320" width="10" height="20" fill="#DD0014" />
<rect x="110" y="320" width="10" height="20" fill="#DD0014" />
<rect x="60" y="340" width="10" height="140" fill="#F2D737" />
<rect x="110" y="340" width="10" height="170" fill="#F2D737" />
<rect x="160" y="340" width="10" height="110" fill="#F2D737" />
<rect x="170" y="340" width="10" height="10" fill="#1F1E1E" />
<rect x="180" y="340" width="10" height="10" fill="#DD0014" />
<rect x="190" y="340" width="10" height="10" fill="#1F1E1E" />
<rect x="200" y="340" width="10" height="300" fill="#F2D737" />
<rect x="70" y="350" width="10" height="140" fill="#F2D737" />
<rect x="100" y="350" width="10" height="160" fill="#F2D737" />
<rect x="170" y="350" width="10" height="120" fill="#F2D737" />
<rect x="180" y="350" width="10" height="10" fill="#1F1E1E" />
<rect x="190" y="350" width="10" height="300" fill="#F2D737" />
<rect x="230" y="350" width="10" height="280" fill="#F2D737" />
<rect x="80" y="360" width="20" height="140" fill="#F2D737" />
<rect x="180" y="360" width="10" height="120" fill="#F2D737" />
<rect x="290" y="390" width="10" height="10" fill="#1F1E1E" />
<rect x="290" y="400" width="10" height="90" fill="#F2D737" />
<rect x="130" y="410" width="10" height="10" fill="#1F1E1E" />
<rect x="140" y="410" width="10" height="10" fill="#F2D737" />
<rect x="130" y="420" width="10" height="100" fill="#F2D737" />
<rect x="140" y="420" width="10" height="10" fill="#1F1E1E" />
<rect x="140" y="430" width="10" height="100" fill="#F2D737" />
<rect x="150" y="430" width="10" height="20" fill="#1F1E1E" />
<rect x="40" y="450" width="10" height="20" fill="#1F1E1E" />
<rect x="150" y="450" width="10" height="70" fill="#F2D737" />
<rect x="160" y="450" width="10" height="20" fill="#1F1E1E" />
<rect x="40" y="470" width="10" height="180" fill="#F2D737" />
<rect x="50" y="470" width="10" height="10" fill="#1F1E1E" />
<rect x="160" y="470" width="10" height="40" fill="#F2D737" />
<rect x="170" y="470" width="10" height="10" fill="#1F1E1E" />
<rect x="50" y="480" width="10" height="180" fill="#F2D737" />
<rect x="60" y="480" width="10" height="10" fill="#1F1E1E" />
<rect x="170" y="480" width="10" height="20" fill="#F2D737" />
<rect x="180" y="480" width="10" height="30" fill="#1F1E1E" />
<rect x="0" y="490" width="10" height="20" fill="#1F1E1E" />
<rect x="10" y="490" width="20" height="30" fill="#442418" />
<rect x="60" y="490" width="10" height="180" fill="#F2D737" />
<rect x="70" y="490" width="10" height="10" fill="#1F1E1E" />
<rect x="270" y="490" width="30" height="10" fill="#1F1E1E" />
<rect x="30" y="500" width="10" height="10" fill="#442418" />
<rect x="70" y="500" width="10" height="170" fill="#F2D737" />
<rect x="80" y="500" width="20" height="10" fill="#1F1E1E" />
<rect x="170" y="500" width="10" height="20" fill="#1F1E1E" />
<rect x="260" y="500" width="10" height="20" fill="#1F1E1E" />
<rect x="270" y="500" width="10" height="110" fill="#F2D737" />
<rect x="280" y="500" width="10" height="20" fill="#1F1E1E" />
<rect x="290" y="500" width="10" height="80" fill="#F2D737" />
<rect x="0" y="510" width="10" height="20" fill="#442418" />
<rect x="30" y="510" width="10" height="40" fill="#F2D737" />
<rect x="80" y="510" width="20" height="160" fill="#F2D737" />
<rect x="100" y="510" width="20" height="10" fill="#1F1E1E" />
<rect x="160" y="510" width="10" height="20" fill="#1F1E1E" />
<rect x="180" y="510" width="10" height="140" fill="#F2D737" />
<rect x="10" y="520" width="10" height="10" fill="#442418" />
<rect x="20" y="520" width="10" height="20" fill="#F2D737" />
<rect x="100" y="520" width="20" height="150" fill="#F2D737" />
<rect x="120" y="520" width="20" height="10" fill="#1F1E1E" />
<rect x="150" y="520" width="10" height="20" fill="#1F1E1E" />
<rect x="170" y="520" width="10" height="130" fill="#F2D737" />
<rect x="250" y="520" width="10" height="80" fill="#1F1E1E" />
<rect x="260" y="520" width="10" height="80" fill="#F2D737" />
<rect x="280" y="520" width="10" height="90" fill="#F2D737" />
<rect x="0" y="530" width="20" height="10" fill="#F2D737" />
<rect x="120" y="530" width="20" height="130" fill="#F2D737" />
<rect x="140" y="530" width="10" height="10" fill="#1F1E1E" />
<rect x="160" y="530" width="10" height="130" fill="#F2D737" />
<rect x="0" y="540" width="10" height="10" fill="#F2D737" />
<rect x="10" y="540" width="20" height="30" fill="#442418" />
<rect x="140" y="540" width="20" height="120" fill="#F2D737" />
<rect x="0" y="550" width="10" height="40" fill="#442418" />
<rect x="30" y="550" width="10" height="10" fill="#442418" />
<rect x="30" y="560" width="10" height="80" fill="#F2D737" />
<rect x="10" y="570" width="10" height="10" fill="#442418" />
<rect x="20" y="570" width="10" height="60" fill="#F2D737" />
<rect x="10" y="580" width="10" height="40" fill="#F2D737" />
<rect x="290" y="580" width="10" height="30" fill="#1F1E1E" />
<rect x="0" y="590" width="10" height="10" fill="#F2D737" />
<rect x="0" y="600" width="10" height="20" fill="#1F1E1E" />
<rect x="250" y="600" width="10" height="20" fill="#F2D737" />
<rect x="260" y="600" width="10" height="20" fill="#1F1E1E" />
<rect x="270" y="610" width="20" height="10" fill="#1F1E1E" />
<rect x="10" y="620" width="10" height="10" fill="#1F1E1E" />
<rect x="240" y="620" width="20" height="10" fill="#1F1E1E" />
<rect x="20" y="630" width="10" height="10" fill="#1F1E1E" />
<rect x="220" y="630" width="20" height="10" fill="#1F1E1E" />
<rect x="30" y="640" width="10" height="10" fill="#1F1E1E" />
<rect x="200" y="640" width="20" height="10" fill="#1F1E1E" />
<rect x="40" y="650" width="10" height="10" fill="#1F1E1E" />
<rect x="170" y="650" width="40" height="10" fill="#1F1E1E" />
<rect x="50" y="660" width="10" height="10" fill="#1F1E1E" />
<rect x="120" y="660" width="10" height="10" fill="#F2D737" />
<rect x="130" y="660" width="40" height="10" fill="#1F1E1E" />
<rect x="170" y="660" width="30" height="10" fill="#442418" />
<rect x="200" y="660" width="10" height="10" fill="#1F1E1E" />
<rect x="60" y="670" width="70" height="10" fill="#1F1E1E" />
<rect x="150" y="670" width="10" height="10" fill="#1F1E1E" />
<rect x="160" y="670" width="30" height="40" fill="#442418" />
<rect x="190" y="670" width="10" height="20" fill="#1F1E1E" />
<rect x="60" y="680" width="10" height="40" fill="#1F1E1E" />
<rect x="70" y="680" width="50" height="20" fill="#F2D737" />
<rect x="120" y="680" width="10" height="30" fill="#1F1E1E" />
<rect x="140" y="680" width="10" height="10" fill="#1F1E1E" />
<rect x="150" y="680" width="10" height="20" fill="#442418" />
<rect x="140" y="690" width="10" height="10" fill="#442418" />
<rect x="190" y="690" width="20" height="10" fill="#442418" />
<rect x="70" y="700" width="40" height="40" fill="#F2D737" />
<rect x="110" y="700" width="10" height="40" fill="#1F1E1E" />
<rect x="150" y="700" width="10" height="20" fill="#1F1E1E" />
<rect x="190" y="700" width="10" height="10" fill="#442418" />
<rect x="200" y="700" width="10" height="350" fill="#F2D737" />
<rect x="210" y="700" width="10" height="10" fill="#1F1E1E" />
<rect x="160" y="710" width="20" height="10" fill="#442418" />
<rect x="180" y="710" width="20" height="130" fill="#F2D737" />
<rect x="210" y="710" width="10" height="350" fill="#F2D737" />
<rect x="220" y="710" width="10" height="10" fill="#1F1E1E" />
<rect x="50" y="720" width="10" height="50" fill="#1F1E1E" />
<rect x="60" y="720" width="10" height="50" fill="#F2D737" />
<rect x="160" y="720" width="10" height="10" fill="#1F1E1E" />
<rect x="170" y="720" width="10" height="10" fill="#F2D737" />
<rect x="220" y="720" width="10" height="50" fill="#F2D737" />
<rect x="230" y="720" width="10" height="50" fill="#1F1E1E" />
<rect x="170" y="730" width="10" height="30" fill="#1F1E1E" />
<rect x="70" y="740" width="30" height="10" fill="#F2D737" />
<rect x="100" y="740" width="10" height="20" fill="#1F1E1E" />
<rect x="70" y="750" width="10" height="30" fill="#1F1E1E" />
<rect x="80" y="750" width="20" height="10" fill="#F2D737" />
<rect x="80" y="760" width="10" height="10" fill="#F2D737" />
<rect x="90" y="760" width="10" height="10" fill="#1F1E1E" />
<rect x="160" y="760" width="10" height="20" fill="#1F1E1E" />
<rect x="170" y="760" width="10" height="70" fill="#F2D737" />
<rect x="60" y="770" width="10" height="10" fill="#1F1E1E" />
<rect x="80" y="770" width="10" height="10" fill="#1F1E1E" />
<rect x="220" y="770" width="10" height="30" fill="#1F1E1E" />
<rect x="150" y="780" width="10" height="10" fill="#1F1E1E" />
<rect x="160" y="780" width="10" height="40" fill="#F2D737" />
<rect x="140" y="790" width="10" height="20" fill="#1F1E1E" />
<rect x="150" y="790" width="10" height="20" fill="#F2D737" />
<rect x="220" y="800" width="10" height="270" fill="#F2D737" />
<rect x="230" y="800" width="30" height="10" fill="#1F1E1E" />
<rect x="150" y="810" width="10" height="10" fill="#1F1E1E" />
<rect x="230" y="810" width="30" height="270" fill="#F2D737" />
<rect x="260" y="810" width="20" height="10" fill="#1F1E1E" />
<rect x="160" y="820" width="10" height="10" fill="#1F1E1E" />
<rect x="260" y="820" width="20" height="180" fill="#F2D737" />
<rect x="280" y="820" width="20" height="10" fill="#1F1E1E" />
<rect x="170" y="830" width="10" height="10" fill="#1F1E1E" />
<rect x="280" y="830" width="20" height="70" fill="#F2D737" />
<rect x="300" y="830" width="10" height="70" fill="#1F1E1E" />
<rect x="180" y="840" width="10" height="10" fill="#1F1E1E" />
<rect x="190" y="840" width="10" height="10" fill="#F2D737" />
<rect x="190" y="850" width="10" height="30" fill="#1F1E1E" />
<rect x="180" y="880" width="10" height="20" fill="#1F1E1E" />
<rect x="190" y="880" width="10" height="160" fill="#F2D737" />
<rect x="170" y="900" width="10" height="20" fill="#1F1E1E" />
<rect x="180" y="900" width="10" height="130" fill="#F2D737" />
<rect x="280" y="900" width="10" height="50" fill="#F2D737" />
<rect x="290" y="900" width="10" height="50" fill="#1F1E1E" />
<rect x="160" y="920" width="10" height="20" fill="#1F1E1E" />
<rect x="170" y="920" width="10" height="100" fill="#F2D737" />
<rect x="150" y="940" width="10" height="20" fill="#1F1E1E" />
<rect x="160" y="940" width="10" height="70" fill="#F2D737" />
<rect x="280" y="950" width="10" height="50" fill="#1F1E1E" />
<rect x="140" y="960" width="10" height="20" fill="#1F1E1E" />
<rect x="150" y="960" width="10" height="40" fill="#F2D737" />
<rect x="130" y="980" width="10" height="10" fill="#1F1E1E" />
<rect x="140" y="980" width="10" height="10" fill="#F2D737" />
<rect x="140" y="990" width="10" height="10" fill="#1F1E1E" />
<rect x="150" y="1000" width="10" height="10" fill="#1F1E1E" />
<rect x="260" y="1000" width="10" height="60" fill="#F2D737" />
<rect x="270" y="1000" width="10" height="60" fill="#1F1E1E" />
<rect x="160" y="1010" width="10" height="10" fill="#1F1E1E" />
<rect x="170" y="1020" width="10" height="10" fill="#1F1E1E" />
<rect x="180" y="1030" width="10" height="10" fill="#1F1E1E" />
<rect x="190" y="1040" width="10" height="10" fill="#1F1E1E" />
<rect x="200" y="1050" width="10" height="10" fill="#1F1E1E" />
<rect x="210" y="1060" width="10" height="10" fill="#1F1E1E" />
<rect x="260" y="1060" width="10" height="30" fill="#1F1E1E" />
<rect x="220" y="1070" width="10" height="10" fill="#1F1E1E" />
<rect x="230" y="1080" width="10" height="10" fill="#1F1E1E" />
<rect x="240" y="1080" width="20" height="10" fill="#F2D737" />
<rect x="240" y="1090" width="20" height="10" fill="#1F1E1E" />
<rect x="250" y="1100" width="10" height="10" fill="#1F1E1E" />
</svg>