<?xml version="1.0" encoding="UTF-8" ?>
<svg version="1.1" width="14" height="16" xmlns="http://www.w3.org/2000/svg" shape-rendering="crispEdges" viewBox="0 0 14 16">
<rect x="3" y="0" width="6" height="1" fill="#00131A" />
<rect x="2" y="1" width="1" height="1" fill="#00131A" />
<rect x="3" y="1" width="6" height="3" fill="#ABCC47" />
<rect x="9" y="1" width="1" height="1" fill="#00131A" />
<rect x="1" y="2" width="1" height="6" fill="#00131A" />
<rect x="2" y="2" width="1" height="2" fill="#ABCC47" />
<rect x="9" y="2" width="1" height="1" fill="#ABCC47" />
<rect x="10" y="2" width="1" height="2" fill="#00131A" />
<rect x="9" y="3" width="1" height="2" fill="#F9FFB3" />
<rect x="11" y="3" width="1" height="1" fill="#00131A" />
<rect x="0" y="4" width="1" height="3" fill="#00131A" />
<rect x="2" y="4" width="1" height="5" fill="#00131A" />
<rect x="3" y="4" width="5" height="1" fill="#ABCC47" />
<rect x="8" y="4" width="1" height="1" fill="#F9FFB3" />
<rect x="10" y="4" width="2" height="1" fill="#F9FFB3" />
<rect x="12" y="4" width="1" height="1" fill="#00131A" />
<rect x="3" y="5" width="4" height="1" fill="#00131A" />
<rect x="7" y="5" width="3" height="1" fill="#ABCC47" />
<rect x="10" y="5" width="2" height="1" fill="#00131A" />
<rect x="3" y="6" width="3" height="1" fill="#00131A" />
<rect x="6" y="6" width="2" height="4" fill="#F9FFB3" />
<rect x="8" y="6" width="1" height="2" fill="#00131A" />
<rect x="9" y="6" width="1" height="3" fill="#F9FFB3" />
<rect x="10" y="6" width="1" height="3" fill="#00131A" />
<rect x="3" y="7" width="2" height="2" fill="#F9FFB3" />
<rect x="5" y="7" width="1" height="1" fill="#00131A" />
<rect x="5" y="8" width="1" height="2" fill="#F9FFB3" />
<rect x="8" y="8" width="1" height="1" fill="#F9FFB3" />
<rect x="1" y="9" width="1" height="4" fill="#00131A" />
<rect x="2" y="9" width="1" height="4" fill="#ABCC47" />
<rect x="3" y="9" width="2" height="1" fill="#00131A" />
<rect x="8" y="9" width="1" height="1" fill="#ABCC47" />
<rect x="9" y="9" width="1" height="1" fill="#00131A" />
<rect x="3" y="10" width="1" height="1" fill="#ABCC47" />
<rect x="4" y="10" width="5" height="1" fill="#00131A" />
<rect x="3" y="11" width="1" height="4" fill="#00131A" />
<rect x="4" y="11" width="2" height="2" fill="#F9FFB3" />
<rect x="6" y="11" width="3" height="1" fill="#00131A" />
<rect x="6" y="12" width="2" height="1" fill="#00131A" />
<rect x="2" y="13" width="1" height="1" fill="#00131A" />
<rect x="4" y="13" width="2" height="1" fill="#00131A" />
<rect x="6" y="13" width="2" height="2" fill="#ABCC47" />
<rect x="8" y="13" width="1" height="2" fill="#00131A" />
<rect x="4" y="14" width="2" height="1" fill="#ABCC47" />
<rect x="4" y="15" width="4" height="1" fill="#00131A" />
</svg>